<svg xmlns="http://www.w3.org/2000/svg" viewBox="0 0 128 128" role="img" aria-label="ArchiveCore">
  <defs>
    <linearGradient id="g1" x1="0" y1="0" x2="1" y2="1">
      <stop offset="0" stop-color="#0b3657"/>
      <stop offset="1" stop-color="#081a2b"/>
    </linearGradient>
    <linearGradient id="g2" x1="0" y1="0" x2="1" y2="1">
      <stop offset="0" stop-color="#5cf2ff"/>
      <stop offset="1" stop-color="#1496ff"/>
    </linearGradient>
  </defs>
  <rect x="14" y="28" width="76" height="62" rx="13" fill="url(#g1)" stroke="#22d7ef" stroke-width="4"/>
  <path d="M22 28h24l9 10h35" fill="none" stroke="#22d7ef" stroke-width="5" stroke-linecap="round"/>
  <ellipse cx="56" cy="58" rx="20" ry="8" fill="#d6ecf6"/>
  <path d="M36 58v22c0 4 9 8 20 8s20-4 20-8V58" fill="#5b8ca6" stroke="#cfe8f3" stroke-width="3"/>
  <path d="M36 69c0 4 9 8 20 8s20-4 20-8M36 79c0 4 9 8 20 8s20-4 20-8" fill="none" stroke="#23d8ef" stroke-width="3"/>
  <path d="M78 62l20-9 20 9v18c0 15-8 25-20 32-12-7-20-17-20-32z" fill="#0b2236" stroke="#d6ecf6" stroke-width="4"/>
  <path d="M88 81l7 7 13-17" fill="none" stroke="url(#g2)" stroke-width="6" stroke-linecap="round" stroke-linejoin="round"/>
</svg>